<svg width="100" height="27" viewBox="0 0 100 27" fill="none" xmlns="http://www.w3.org/2000/svg">
<path d="M0.736 26V0.799998H3.616L14.092 18.044H12.22L22.696 0.799998H25.576V26H21.436V8.072L22.372 8.324L14.596 21.104H11.716L3.94 8.324L4.876 8.072V26H0.736ZM31.6167 26V8.72H35.5767V26H31.6167ZM33.5967 5.552C32.9247 5.552 32.3607 5.324 31.9047 4.868C31.4727 4.412 31.2567 3.848 31.2567 3.176C31.2567 2.504 31.4727 1.94 31.9047 1.484C32.3607 1.028 32.9247 0.799998 33.5967 0.799998C34.2927 0.799998 34.8567 1.028 35.2887 1.484C35.7207 1.94 35.9367 2.504 35.9367 3.176C35.9367 3.848 35.7207 4.412 35.2887 4.868C34.8567 5.324 34.2927 5.552 33.5967 5.552ZM41.0982 26V0.079999H45.0582V26H41.0982ZM58.4654 26.36C56.7854 26.36 55.2614 25.964 53.8934 25.172C52.5254 24.356 51.4334 23.264 50.6174 21.896C49.8254 20.528 49.4294 19.004 49.4294 17.324C49.4294 15.644 49.8254 14.132 50.6174 12.788C51.4334 11.444 52.5254 10.376 53.8934 9.584C55.2614 8.768 56.7854 8.36 58.4654 8.36C60.1694 8.36 61.7054 8.756 63.0734 9.548C64.4414 10.34 65.5214 11.42 66.3134 12.788C67.1294 14.132 67.5374 15.644 67.5374 17.324C67.5374 19.004 67.1294 20.528 66.3134 21.896C65.5214 23.264 64.4414 24.356 63.0734 25.172C61.7054 25.964 60.1694 26.36 58.4654 26.36ZM58.4654 22.544C59.4494 22.544 60.3134 22.328 61.0574 21.896C61.8254 21.44 62.4134 20.816 62.8214 20.024C63.2534 19.232 63.4694 18.332 63.4694 17.324C63.4694 16.316 63.2534 15.428 62.8214 14.66C62.3894 13.892 61.8014 13.292 61.0574 12.86C60.3134 12.404 59.4494 12.176 58.4654 12.176C57.5054 12.176 56.6414 12.404 55.8734 12.86C55.1294 13.292 54.5414 13.892 54.1094 14.66C53.7014 15.428 53.4974 16.316 53.4974 17.324C53.4974 18.332 53.7014 19.232 54.1094 20.024C54.5414 20.816 55.1294 21.44 55.8734 21.896C56.6414 22.328 57.5054 22.544 58.4654 22.544Z" fill="white"/>
</svg>
